HIERARCHY
ROOT root
{
	OFFSET	0	13.1	24.9
	CHANNELS 6  Xposition Yposition Zposition Xrotation Yrotation Zrotation
	JOINT spine_1
	{
		OFFSET	0	9.99999	0
		CHANNELS 3  Xrotation Yrotation Zrotation
		JOINT spine_2
		{
			OFFSET	0	112	-10
			CHANNELS 3  Xrotation Yrotation Zrotation
			JOINT spine_3
			{
				OFFSET	0	206.5	19.3
				CHANNELS 3  Xrotation Yrotation Zrotation
				JOINT spine_4
				{
					OFFSET	0	110.4	14.6
					CHANNELS 3  Xrotation Yrotation Zrotation
					JOINT neck_1
					{
						OFFSET	0	71.8	-50.3
						CHANNELS 3  Xrotation Yrotation Zrotation
						JOINT neck_2
						{
							OFFSET	0	86.2	-25.8
							CHANNELS 3  Xrotation Yrotation Zrotation
							JOINT head_ee
							{
								OFFSET	0	179.8	-8.7
								CHANNELS 3  Xrotation Yrotation Zrotation
								End Site
								{
									OFFSET	1	0	0
								}
							}
						}
					}
					JOINT left_clavicle
					{
						OFFSET	-43.2	22.4	-70.8
						CHANNELS 3  Xrotation Yrotation Zrotation
						JOINT left_shoulder
						{
							OFFSET	-93.9	-5.79999	48.7
							CHANNELS 3  Xrotation Yrotation Zrotation
							JOINT left_elbow
							{
								OFFSET	-291.4	-30.8	15.2
								CHANNELS 3  Xrotation Yrotation Zrotation
								JOINT left_lowarm_twist
								{
									OFFSET	-110.7	-3.89999	13.6
									CHANNELS 3  Xrotation Yrotation Zrotation
									JOINT left_hand
									{
										OFFSET	-110.7	-3.89999	13.6
										CHANNELS 3  Xrotation Yrotation Zrotation
										JOINT left_ee
										{
											OFFSET	-80.8	-5.10001	12.1
											CHANNELS 3  Xrotation Yrotation Zrotation
											End Site
											{
												OFFSET	1	0	0
											}
										}
									}
								}
							}
						}
					}
					JOINT right_clavicle
					{
						OFFSET	43.2	22.4	-70.8
						CHANNELS 3  Xrotation Yrotation Zrotation
						JOINT right_shoulder
						{
							OFFSET	93.9	-5.79999	48.7
							CHANNELS 3  Xrotation Yrotation Zrotation
							JOINT right_elbow
							{
								OFFSET	291.4	-30.8	15.2
								CHANNELS 3  Xrotation Yrotation Zrotation
								JOINT right_lowarm_twist
								{
									OFFSET	110.7	-3.89999	13.6
									CHANNELS 3  Xrotation Yrotation Zrotation
									JOINT right_hand
									{
										OFFSET	110.7	-3.89999	13.6
										CHANNELS 3  Xrotation Yrotation Zrotation
										JOINT right_ee
										{
											OFFSET	80.8	-5.10001	12.1
											CHANNELS 3  Xrotation Yrotation Zrotation
											End Site
											{
												OFFSET	1	0	0
											}
										}
									}
								}
							}
						}
					}
				}
			}
		}
	}
	JOINT left_hip
	{
		OFFSET	-82.8	-127.5	0.300001
		CHANNELS 3  Xrotation Yrotation Zrotation
		JOINT left_knee
		{
			OFFSET	-28.2	-396.7	2.2
			CHANNELS 3  Xrotation Yrotation Zrotation
			JOINT left_ankle
			{
				OFFSET	-11.7	-411.3	35.4
				CHANNELS 3  Xrotation Yrotation Zrotation
				JOINT left_toes
				{
					OFFSET	0	-60	-88.6
					CHANNELS 3  Xrotation Yrotation Zrotation
					JOINT left_foot_ee
					{
						OFFSET	-22.5	-16.5	-42.2
						CHANNELS 3  Xrotation Yrotation Zrotation
						End Site
						{
							OFFSET	1	0	0
						}
					}
				}
			}
		}
	}
	JOINT right_hip
	{
		OFFSET	82.8	-127.5	0.300001
		CHANNELS 3  Xrotation Yrotation Zrotation
		JOINT right_knee
		{
			OFFSET	28.2	-396.7	2.2
			CHANNELS 3  Xrotation Yrotation Zrotation
			JOINT right_ankle
			{
				OFFSET	11.7	-411.3	35.4
				CHANNELS 3  Xrotation Yrotation Zrotation
				JOINT right_toes
				{
					OFFSET	0	-60	-88.6
					CHANNELS 3  Xrotation Yrotation Zrotation
					JOINT right_foot_ee
					{
						OFFSET	22.5	-16.5	-42.2
						CHANNELS 3  Xrotation Yrotation Zrotation
						End Site
						{
							OFFSET	1	0	0
						}
					}
				}
			}
		}
	}
}
MOTION
Frames: 9
Frame Time: 0.02
1103.33218607 727.929 -1726.51648103 -15.5949177359 39.9177540477 6.84416398995 4.58117 0.334859 1.36899 4.58217 0.247076 1.38752 4.5874 0.0627802 1.40794 4.58475 0.284329 1.38037 -10.0387 15.965 3.93788 -10.2688 27.4701 7.92751 -0.0 0.0 -0.0 0.591036 6.03246 1.78693 -40.3661 -17.046 73.3138 0.848035 -22.7867 0.170894 -8.04419 -0.351889 0.965465 -1.06645 7.97652 -3.59066 -0.0 0.0 -0.0 11.7997 15.7449 -23.7125 -14.2696 29.4314 -57.9426 1.09511 28.4784 -0.277911 -16.66 0.874991 -1.93476 -2.17244 -12.1338 8.7679 0.0 0.0 0.0 25.5744 0.559942 -1.40897 -51.7979 -1.38233 7.56238 25.6499 15.5765 -3.44778 -11.3473 0.0 0.0 -0.0 0.0 -0.0 15.5339 10.5812 -1.64405 3.95678 0.183046 0.579386 13.7264 19.1073 2.15443 -8.16723 0.0 0.0 0.0 0.0 0.0 
1097.02206134 728.381 -1737.77230815 -15.4498615982 39.0640606806 6.85392949083 4.62202 0.299081 1.33493 4.62298 0.213538 1.35125 4.62729 0.0352358 1.36756 4.62476 0.250755 1.34484 -9.93189 16.2139 5.46466 -10.1004 26.8985 9.42359 -0.0 0.0 -0.0 0.614713 5.97016 1.82322 -40.7112 -16.6559 74.039 0.830658 -22.3662 0.164223 -7.98394 -0.348753 0.958426 -1.21277 9.30703 -3.94085 -0.0 0.0 -0.0 11.9181 16.1998 -23.9637 -12.885 29.9869 -57.3379 1.11494 28.9115 -0.287434 -16.5543 0.867698 -1.92336 -2.12312 -13.0379 8.00645 0.0 0.0 0.0 27.626 -0.09344 -1.79274 -51.059 -1.31565 7.47015 24.1047 16.0886 -3.2695 -11.867 0.0 0.0 -0.0 0.0 -0.0 14.8227 13.2646 -1.84345 3.72474 0.171208 0.545761 16.7201 19.8373 2.60397 -7.81818 0.0 0.0 0.0 0.0 0.0 
1079.38179519 722.692 -1748.99900476 -16.224562577 39.64034435 7.9744955054 4.68619 0.250614 1.29079 4.6871 0.167977 1.30412 4.69022 -0.00234644 1.31489 4.68786 0.205327 1.29876 -10.1077 16.2094 4.66513 -10.3257 27.4602 8.70518 -0.0 0.0 -0.0 0.304674 6.48295 1.31897 -42.5834 -17.3392 74.6942 0.860914 -23.0966 0.175914 -8.4251 -0.371889 1.00989 -1.05505 8.55406 -3.25989 -0.0 0.0 -0.0 12.0801 16.309 -24.3298 -11.5276 30.1232 -56.2903 1.2708 32.1898 -0.36669 -17.0355 0.901066 -1.97515 -2.18718 -10.8671 9.48987 0.0 0.0 0.0 29.8079 2.19796 -2.34105 -50.3393 -1.25185 7.37951 24.4681 15.9756 -3.31188 -11.7895 0.0 0.0 -0.0 0.0 -0.0 14.1396 10.209 -2.43306 3.71954 0.170944 0.545007 16.965 16.953 2.57573 -8.23908 0.0 0.0 0.0 0.0 0.0 
1030.83709798 718.273 -1762.18906256 -15.3644750899 38.338442679 7.17814213182 4.82883 0.271322 1.12666 4.82951 0.199084 1.14164 4.83292 0.0524338 1.15768 4.83112 0.234598 1.13488 -10.3155 17.0525 2.88846 -10.662 30.2766 7.31249 -0.0 0.0 -0.0 -0.0248626 7.90042 0.893552 -43.5524 -18.0976 77.8259 0.830396 -22.3598 0.164123 -8.8442 -0.394236 1.05861 -1.0577 7.9158 -3.56093 -0.0 0.0 -0.0 12.2586 15.1437 -24.7852 -9.15852 30.4608 -55.6117 1.58356 38.1097 -0.546991 -18.4915 1.00467 -2.13013 -2.76221 -8.80828 14.3105 0.0 0.0 0.0 34.0169 0.0561681 -2.99263 -49.8603 -1.21003 7.31874 19.0464 15.3261 -2.63817 -12.86 0.0 0.0 -0.0 0.0 -0.0 12.1685 9.50676 -1.8067 -0.110457 -0.00453251 -0.0163448 20.8961 13.4372 3.03206 -7.20787 0.0 0.0 0.0 0.0 0.0 
1014.6214426 716.479 -1774.60590373 -14.5265005901 38.1958836126 6.88930297336 4.88113 0.231502 0.800958 4.88147 0.180067 0.814065 4.88374 0.0759204 0.830277 4.88284 0.20609 0.807869 -9.95128 17.1731 3.03733 -10.2581 30.3457 7.38351 -0.0 0.0 -0.0 -0.195945 8.89309 0.71178 -43.3941 -18.2025 78.4377 0.850281 -22.8408 0.171765 -9.14841 -0.41068 1.09388 -0.985473 7.07305 -3.46523 -0.0 0.0 -0.0 12.3331 15.9992 -24.9242 -8.04276 29.397 -55.6097 1.6487 39.2359 -0.587692 -18.4109 0.998838 -2.12162 -2.49915 -7.78153 13.082 0.0 0.0 0.0 34.1094 -0.581007 -3.32692 -48.2997 -1.07733 7.11842 18.9467 15.7788 -2.62852 -13.0034 0.0 0.0 -0.0 0.0 -0.0 10.8086 10.1233 -1.32305 -1.46114 -0.0573987 -0.21688 21.5268 13.635 3.11706 -7.18317 0.0 0.0 0.0 0.0 0.0 
994.021899299 717.202 -1803.78705227 -12.4418662132 35.3319744398 5.58984425713 4.32629 0.305775 0.786967 4.32659 0.25508 0.804828 4.32997 0.143472 0.832002 4.32911 0.273067 0.798905 -12.9686 17.4802 3.87263 -13.6141 30.8871 9.16805 -0.0 0.0 -0.0 -0.256508 9.98423 0.740344 -42.4964 -18.5699 79.4796 0.790662 -21.3887 0.149319 -9.12677 -0.409504 1.09138 -1.10744 6.12032 -4.6861 -0.0 0.0 -0.0 12.4591 15.8509 -25.2204 -6.77975 30.388 -54.3256 1.76298 41.1279 -0.661441 -19.1607 1.05361 -2.20048 -2.63269 -3.57292 16.1064 0.0 0.0 0.0 35.4795 -2.22064 -5.04962 -36.9532 -0.284398 5.56701 15.878 19.1791 -2.25405 -15.8052 0.0 0.0 -0.0 0.0 -0.0 8.15479 10.1052 -0.378997 -4.0253 -0.144678 -0.600692 24.1929 15.1727 3.48726 -7.36371 0.0 0.0 0.0 0.0 0.0 
987.550871889 717.202 -1796.19036193 -12.6211029369 36.4463640969 5.89557965827 4.32629 0.305775 0.786967 4.32659 0.25508 0.804828 4.32997 0.143472 0.832002 4.32911 0.273067 0.798905 -12.9686 17.4802 3.87263 -13.6141 30.8871 9.16805 -0.0 0.0 -0.0 -0.256508 9.98423 0.740344 -42.4964 -18.5699 79.4796 0.790662 -21.3887 0.149319 -9.12677 -0.409504 1.09138 -1.10744 6.12032 -4.6861 -0.0 0.0 -0.0 12.4591 15.8509 -25.2204 -6.77975 30.388 -54.3256 1.76298 41.1279 -0.661441 -19.1607 1.05361 -2.20048 -2.63269 -3.57292 16.1064 0.0 0.0 0.0 35.4795 -2.22064 -5.04962 -36.9532 -0.284398 5.56701 15.878 19.1791 -2.25405 -15.8052 0.0 0.0 -0.0 0.0 -0.0 8.15479 10.1052 -0.378997 -4.0253 -0.144678 -0.600692 24.1929 15.1727 3.48726 -7.36371 0.0 0.0 0.0 0.0 0.0 
978.468826164 714.242 -1807.48127216 -13.1113460682 35.4528721561 6.11248704369 4.61692 0.315043 0.707237 4.61715 0.269402 0.725849 4.62038 0.172211 0.754835 4.6197 0.289259 0.718167 -13.5063 17.3524 2.46147 -14.2839 31.5832 7.9908 -0.0 0.0 -0.0 -0.227564 9.65053 0.749365 -41.0047 -18.563 79.6197 0.750493 -20.3937 0.134994 -8.7576 -0.389589 1.04856 -0.914263 6.286 -3.34783 -0.0 0.0 -0.0 12.4007 15.8055 -25.0875 -5.82516 30.575 -54.3543 1.71631 40.3681 -0.630979 -18.5324 1.00764 -2.13445 -2.73854 -2.71054 17.2718 0.0 0.0 0.0 35.4739 -6.03751 -4.31568 -31.4874 -0.0157751 4.77186 13.2118 21.3809 -1.91049 -17.0633 0.0 0.0 -0.0 0.0 -0.0 7.32874 9.28566 0.798286 -4.40553 -0.156154 -0.657918 25.7723 13.2103 3.63317 -6.89635 0.0 0.0 0.0 0.0 0.0 
965.43752904 714.694 -1822.62264092 -13.1481102759 36.4777074383 5.80456674223 4.69695 0.104755 0.726317 4.69724 0.0583261 0.73151 4.69776 -0.0368221 0.732907 4.69702 0.0793859 0.729525 -14.129 17.1882 1.88486 -14.9995 31.69 7.59938 -0.0 0.0 -0.0 0.0235047 8.41577 1.03964 -39.4879 -18.4749 80.368 0.720482 -19.6418 0.124721 -8.7279 -0.387999 1.04511 -0.763979 5.55134 -2.68555 -0.0 0.0 -0.0 12.0532 15.1572 -24.314 -5.77404 30.4879 -54.2328 1.68732 39.8873 -0.612295 -18.6221 1.01416 -2.1439 -2.64657 -0.397457 17.7799 0.0 0.0 0.0 34.1802 -8.21556 -3.41015 -20.0244 0.295349 3.04309 11.776 23.8194 -1.73066 -17.6279 0.0 0.0 -0.0 0.0 -0.0 6.15878 11.3706 2.01272 -6.70862 -0.217515 -1.00601 27.6774 13.0818 3.85383 -6.71312 0.0 0.0 0.0 0.0 0.0 
